<?xml version="1.0" encoding="UTF-8" standalone="no"?>
<svg
   id="Layer_2"
   data-name="Layer 2"
   viewBox="0 0 1664.2393 1219.0665"
   version="1.1"
   sodipodi:docname="browser_lib_logo.svg"
   width="1664.2393"
   height="1219.0665"
   inkscape:version="1.3.2 (091e20e, 2023-11-25)"
   xmlns:inkscape="http://www.inkscape.org/namespaces/inkscape"
   xmlns:sodipodi="http://sodipodi.sourceforge.net/DTD/sodipodi-0.dtd"
   xmlns="http://www.w3.org/2000/svg"
   xmlns:svg="http://www.w3.org/2000/svg"
   xmlns:rdf="http://www.w3.org/1999/02/22-rdf-syntax-ns#"
   xmlns:cc="http://creativecommons.org/ns#"
   xmlns:dc="http://purl.org/dc/elements/1.1/">
  <sodipodi:namedview
     id="namedview1"
     pagecolor="#505050"
     bordercolor="#ffffff"
     borderopacity="1"
     inkscape:showpageshadow="0"
     inkscape:pageopacity="0"
     inkscape:pagecheckerboard="1"
     inkscape:deskcolor="#505050"
     inkscape:zoom="0.0944"
     inkscape:cx="820.97458"
     inkscape:cy="185.38136"
     inkscape:window-width="1360"
     inkscape:window-height="710"
     inkscape:window-x="4548"
     inkscape:window-y="967"
     inkscape:window-maximized="0"
     inkscape:current-layer="Layer_2" />
  <metadata
     id="metadata4732">
    <rdf:RDF>
      <cc:Work
         rdf:about="">
        <dc:format>image/svg+xml</dc:format>
        <dc:type
           rdf:resource="http://purl.org/dc/dcmitype/StillImage" />
      </cc:Work>
    </rdf:RDF>
  </metadata>
  <defs
     id="defs4692">
    <rect
       x="448.44788"
       y="1623.4949"
       width="1297.093"
       height="215.70911"
       id="rect5323" />
    <rect
       x="459.80099"
       y="1654.7159"
       width="1666.0691"
       height="241.25362"
       id="rect5299" />
    <style
       id="style4690">
      .cls-1 {
        stroke: #000;
      }

      .cls-1, .cls-2, .cls-3 {
        fill: #fff;
      }

      .cls-1, .cls-4 {
        stroke-miterlimit: 10;
        stroke-width: 14.17px;
      }

      .cls-2 {
        font-family: OCRAStd, 'OCR A Std';
        font-size: 283.38px;
      }

      .cls-5, .cls-6, .cls-7, .cls-8, .cls-9, .cls-10, .cls-11, .cls-3 {
        stroke-width: 0px;
      }

      .cls-4 {
        stroke: #fff;
      }

      .cls-6 {
        fill: #2ead33;
      }

      .cls-7 {
        fill: #231f20;
      }

      .cls-8 {
        fill: #1d8d22;
      }

      .cls-9 {
        fill: #e2574c;
      }

      .cls-10 {
        fill: #d65348;
      }

      .cls-11 {
        fill: #324e5b;
      }
    </style>
  </defs>
  <g
     id="Layer_3"
     data-name="Layer 3"
     transform="translate(-422.27888,-464.99955)">
    <g
       id="g4726">
      <g
         id="Face1">
        <rect
           class="cls-10"
           x="561.96997"
           y="759.03998"
           width="349.94"
           height="687.34003"
           transform="rotate(-15,736.94831,1102.7044)"
           id="rect4696" />
        <rect
           class="cls-9"
           x="899.96997"
           y="668.38"
           width="350.60999"
           height="687.34003"
           transform="rotate(-15,1075.288,1012.0567)"
           id="rect4698" />
        <path
           class="cls-3"
           d="m 955.37,1004.6 c 11.06,9.51 26.11,12.93 40.19,9.11 8.42,-2.25 15.95,-7.01 21.58,-13.66 l 80.54,-92.63 c 0.53,-0.58 1.04,-1.17 1.54,-1.78 15.32,-18.69 12.59,-46.27 -6.1,-61.59 -18.69,-15.32 -46.27,-12.59 -61.59,6.1 l -80.24,92.55 c -15.89,18.25 -14.01,45.93 4.21,61.86 l -0.13,0.03 z"
           id="path4700" />
        <path
           class="cls-1"
           d="m 1217.53,659.55 v -0.04 c 0,0 -120.82,-69.79 -120.82,-69.79 -18.27,-10.56 -39.98,-13.48 -60.39,-8.1 L 558.01,709.78 c -20.39,5.49 -37.78,18.83 -48.37,37.1 l -69.61,120.95 c -10.54,18.26 -13.41,39.95 -7.98,60.32 l 128.16,478.31 c 5.46,20.41 18.81,37.81 37.1,48.37 l 120.72,69.81 c 18.32,10.44 40.03,13.24 60.4,7.77 l 478.31,-128.16 c 20.39,-5.41 37.81,-18.69 48.42,-36.93 l 69.65,-120.82 c 10.64,-18.27 13.5,-40.05 7.95,-60.44 L 1254.64,707.92 c -5.39,-20.44 -18.76,-37.87 -37.1,-48.37 z m 76.43,533.5 c 2.15,8.01 1.03,16.55 -3.12,23.74 l -53.41,92.51 c -4.15,7.19 -10.98,12.43 -19,14.57 l -447.2,119.83 c -8.01,2.15 -16.55,1.03 -23.74,-3.12 l -92.21,-53.49 c -7.19,-4.15 -12.43,-10.98 -14.57,-19 L 520.99,921.28 c -2.15,-8.01 -1.03,-16.55 3.12,-23.74 l 53.12,-92.39 c 4.15,-7.19 10.98,-12.43 19,-14.57 l 447.33,-119.86 c 8.01,-2.15 16.55,-1.03 23.74,3.12 l 92.5,53.37 c 7.19,4.15 12.43,10.98 14.57,19 l 119.6,446.85 z"
           id="path4702" />
        <path
           class="cls-3"
           d="m 703.42,1091.81 c 23.37,-6.26 37.24,-30.28 30.98,-53.65 -4.7,-17.6 5.74,-35.67 23.33,-40.4 17.61,-4.73 35.71,5.71 40.44,23.31 l 0.02,0.06 c 6.28,23.36 30.31,37.22 53.67,30.94 23.36,-6.28 37.22,-30.31 30.94,-53.67 -17.98,-62.3 -81.98,-99.26 -144.93,-83.67 -64.69,16.01 -104.15,81.43 -88.14,146.12 h 0.04 c 6.26,23.36 30.28,37.23 53.65,30.96 z"
           id="path4704" />
        <path
           class="cls-3"
           d="m 1177.3,1267.32 -392.67,105.22 c -23.42,6.27 -47.49,-7.62 -53.76,-31.04 v 0 c -18.98,-70.99 72.45,-157.17 204.29,-192.49 131.85,-35.33 254.2,-6.44 273.17,64.56 v 0 c 6.27,23.42 -7.62,47.49 -31.04,53.76 z"
           id="path4706" />
      </g>
      <g
         id="Face2">
        <rect
           class="cls-8"
           x="1041.86"
           y="583.94"
           width="440.92001"
           height="866.06"
           transform="rotate(15,1262.318,1016.9559)"
           id="rect4709" />
        <rect
           class="cls-6"
           x="1467.74"
           y="698.16998"
           width="441.76999"
           height="866.06"
           transform="rotate(15,1688.609,1131.1843)"
           id="rect4711" />
        <path
           class="cls-5"
           d="m 1562.49,1047.53 c 6.07,17.35 20.35,30.56 38.11,35.26 10.6,2.85 21.82,2.4 32.16,-1.31 L 1779,1031.14 c 0.94,-0.3 1.88,-0.62 2.81,-0.97 28.49,-10.74 42.89,-42.55 32.14,-71.05 -10.74,-28.49 -42.55,-42.89 -71.05,-32.14 l -145.87,50.44 c -28.84,9.91 -44.22,41.29 -34.38,70.15 z"
           id="path4713" />
        <path
           class="cls-4"
           d="m 2065.94,836.16 v -0.05 l -87.85,-152.26 c -13.28,-23.04 -35.14,-39.89 -60.8,-46.88 L 1314.61,475.48 c -25.71,-6.85 -53.09,-3.25 -76.16,10.01 l -152.15,88.12 c -23,13.28 -39.8,35.14 -46.71,60.79 L 878.1,1237.08 c -6.9,25.71 -3.29,53.11 10.01,76.16 l 87.75,152.23 c 13.42,22.94 35.34,39.66 61.01,46.54 l 602.68,161.49 c 25.66,6.94 53.03,3.42 76.1,-9.8 l 152.11,-87.96 c 23.12,-13.24 39.96,-35.19 46.75,-60.95 l 161.43,-602.46 c 7,-25.7 3.39,-53.14 -10.01,-76.16 z m -252.7,630.3 c -2.7,10.1 -9.31,18.71 -18.36,23.94 l -116.56,67.3 c -9.06,5.23 -19.82,6.64 -29.91,3.93 l -563.47,-150.98 c -10.1,-2.7 -18.71,-9.31 -23.94,-18.36 l -66.92,-116.46 c -5.23,-9.06 -6.64,-19.82 -3.93,-29.91 L 1141,682.93 c 2.7,-10.1 9.31,-18.71 18.36,-23.94 l 116.17,-67.34 c 9.06,-5.23 19.82,-6.64 29.91,-3.93 l 563.63,151.03 c 10.1,2.7 18.71,9.31 23.94,18.36 l 67.31,116.51 c 5.23,9.06 6.64,19.82 3.93,29.91 -122.9552,452.8741 -41.1755,151.5125 -151.01,562.93 z"
           id="path4715" />
        <path
           class="cls-5"
           d="m 1232.62,983.96 c 29.45,7.89 59.71,-9.58 67.6,-39.03 5.95,-22.16 28.73,-35.31 50.9,-29.39 22.19,5.93 35.38,28.73 29.45,50.92 l -0.02,0.08 c -7.87,29.45 9.63,59.7 39.08,67.57 29.45,7.87 59.7,-9.63 67.57,-39.08 19.63,-79.31 -26.93,-159.96 -105.43,-182.61 -80.68,-23.28 -164.95,23.25 -188.23,103.92 h 0.05 c -7.89,29.46 9.58,59.73 39.03,67.62 z"
           id="path4717" />
        <path
           class="cls-7"
           d="M 1696.86,1258.65 1202.1,1126.08 c -29.5,-7.91 -59.83,9.6 -67.74,39.11 v 0 c -23.91,89.45 91.28,198.03 257.41,242.54 166.13,44.51 320.29,8.11 344.2,-81.34 v 0 c 7.91,-29.5 -9.6,-59.83 -39.11,-67.74 z"
           id="path4719"
           style="fill:#000000;fill-opacity:1" />
      </g>
    </g>
  </g>
</svg>
